<svg xmlns="http://www.w3.org/2000/svg" xmlns:xlink="http://www.w3.org/1999/xlink" width="18" height="17" viewBox="0 0 18 17">
    <defs>
        <path id="a" d="M0 .07h16.419V15H0z"/>
    </defs>
    <g fill="none" fill-rule="evenodd">
        <g transform="translate(1 1)">
            <mask id="b" fill="#fff">
                <use xlink:href="#a"/>
            </mask>
            <path fill="#BD9564" d="M7.945.07c-.149.007-.232-.007-.3.018C5.834.75 3.887 2.149 4.144 4.717c.034.34.071.652-.436.81-1.495.469-1.884 1.07-1.913 2.593-.005.276-.17.62-.382.812C.102 10.12-.31 11.385.232 12.733c.576 1.43 1.853 2.246 3.61 2.255 2.945.014 5.89.019 8.834-.003 1.696-.013 2.962-.858 3.52-2.266.526-1.329.11-2.614-1.138-3.751a1.43 1.43 0 0 1-.422-.938c-.023-1.375-.506-2.05-1.85-2.518-.208-.073-.466-.326-.489-.52-.204-1.673-.744-2.306-2.52-2.401-1.768-.096-2.46-.542-1.832-2.522" mask="url(#b)"/>
        </g>
        <path fill="#666" stroke="#666" stroke-linecap="round" d="M8.945 1.068c-.629 1.956.064 2.398 1.831 2.492 1.777.095 2.317.72 2.521 2.374.023.19.28.441.489.513 1.344.462 1.827 1.13 1.85 2.487.005.316.181.71.422.928 1.247 1.123 1.664 2.393 1.138 3.706-.558 1.392-1.824 2.227-3.52 2.24-2.945.021-5.89.017-8.834.002-1.757-.008-3.034-.815-3.61-2.227C.69 12.25 1.103 11 2.413 9.826c.212-.19.377-.53.382-.802.029-1.504.418-2.1 1.913-2.562.507-.157.47-.465.436-.801-.257-2.537 1.69-3.919 3.503-4.574.067-.024.15-.01.3-.019"/>
        <g stroke="#FFF" stroke-linecap="round" stroke-width="1.5">
            <path d="M11.975 8.025l-4.95 4.95M11.975 12.975l-4.95-4.95"/>
        </g>
    </g>
</svg>
