<?xml version="1.0" encoding="UTF-8"?>
<svg width="32px" height="31px" viewBox="0 0 32 31" version="1.1" xmlns="http://www.w3.org/2000/svg" xmlns:xlink="http://www.w3.org/1999/xlink">
    <!-- Generator: Sketch 51.2 (57519) - http://www.bohemiancoding.com/sketch -->
    <title>Group 4</title>
    <desc>Created with Sketch.</desc>
    <defs>
        <polygon id="path-1" points="3.12872172e-05 0.1337625 29.8755224 0.1337625 29.8755224 28.9999341 3.12872172e-05 28.9999341"></polygon>
    </defs>
    <g id="Page-1" stroke="none" stroke-width="1" fill="none" fill-rule="evenodd">
        <g id="Desktop-HD" transform="translate(-137.000000, -78.000000)">
            <g id="Group-4" transform="translate(138.000000, 79.000000)">
                <g id="Group-7-Copy">
                    <g id="Group-3">
                        <mask id="mask-2" fill="white">
                            <use xlink:href="#path-1"></use>
                        </mask>
                        <g id="Clip-2"></g>
                        <path d="M14.4571791,0.1337625 C14.1862836,0.14916875 14.0349403,0.122434375 13.9122537,0.1700125 C10.6140448,1.45190312 7.07135821,4.15524687 7.53837313,9.11923125 C7.60016418,9.7762625 7.66867164,10.379825 6.74538806,10.6870437 C4.02523881,11.5914812 3.3168806,12.7555594 3.2649403,15.6986062 C3.25553731,16.2328406 2.95508955,16.8966687 2.57001493,17.2677781 C0.186134328,19.5646687 -0.564313433,22.0106375 0.423447761,24.6179187 C1.46986567,27.3806219 3.79329851,28.9597625 6.99120896,28.9765281 C12.3491194,29.0041687 17.7074776,29.0132312 23.0653881,28.9706375 C26.1513582,28.9457156 28.454194,27.3126531 29.4701642,24.5893719 C30.4279254,22.0210594 29.6689701,19.5356687 27.4001642,17.3380125 C26.961806,16.9125281 26.6403134,16.1408562 26.6309104,15.5237 C26.5906119,12.8670281 25.711209,11.5606687 23.2646418,10.6562312 C22.8867313,10.5162156 22.4183731,10.0259344 22.3758358,9.6530125 C22.004194,6.41679375 21.0227015,5.19380937 17.7889701,5.00848125 C14.5727015,4.8245125 13.3127015,3.96085625 14.4571791,0.1337625" id="Fill-1" fill="#BD9564" mask="url(#mask-2)"></path>
                    </g>
                    <g id="Group-6" fill="#EEDE12" stroke="#EEBB28" stroke-linecap="round" stroke-width="2">
                        <path d="M14.4571791,0.132179104 C13.3127015,3.91397015 14.5727015,4.76740299 17.7889701,4.94919403 C21.0227015,5.13232836 22.004194,6.34083582 22.3758358,9.53874627 C22.4183731,9.90725373 22.8867313,10.3917313 23.2646418,10.5300896 C25.711209,11.4238209 26.5906119,12.7147164 26.6309104,15.3399403 C26.6403134,15.949791 26.961806,16.7123284 27.4001642,17.1327761 C29.6689701,19.3044179 30.4279254,21.7603881 29.4701642,24.2982985 C28.454194,26.9893433 26.1513582,28.6030746 23.0653881,28.6277015 C17.7074776,28.669791 12.3491194,28.6608358 6.99120896,28.6335224 C3.79329851,28.6169552 1.46986567,27.0565075 0.423447761,24.3265075 C-0.564313433,21.7500896 0.186134328,19.3330746 2.57001493,17.0633731 C2.95508955,16.6966567 3.25553731,16.0406866 3.2649403,15.5127761 C3.3168806,12.6045672 4.02523881,11.4542687 6.74538806,10.5605373 C7.66867164,10.2569552 7.60016418,9.66053731 7.53837313,9.01128358 C7.07135821,4.1060597 10.6140448,1.43471642 13.9122537,0.168 C14.0349403,0.120985075 14.1862836,0.147402985 14.4571791,0.132179104" id="Fill-4"></path>
                    </g>
                </g>
                <path d="M14.9127211,21.3043982 L11.8315068,23.2203253 C11.5970028,23.3661419 11.288692,23.2942467 11.1428754,23.0597428 C11.0716574,22.9452093 11.0497295,22.8067622 11.082069,22.6758269 L11.9520764,19.1533639 L9.1777739,16.815009 C8.96662828,16.6370424 8.93973143,16.3216045 9.11769811,16.1104589 C9.20461836,16.0073338 9.32951326,15.9436967 9.46403364,15.9339921 L13.082942,15.6729173 L14.4495431,12.3118075 C14.5535519,12.0560014 14.8452395,11.9329453 15.1010456,12.0369541 C15.2259833,12.0877527 15.3251004,12.1868699 15.3758991,12.3118075 L16.7425001,15.6729173 L20.3614085,15.9339921 C20.6368351,15.9538619 20.8440048,16.1932469 20.824135,16.4686735 C20.8144305,16.6031939 20.7507933,16.7280888 20.6476682,16.815009 L17.8733658,19.1533639 L18.7433731,22.6758269 C18.8095873,22.9439132 18.6459376,23.2149174 18.3778512,23.2811316 C18.2469159,23.3134711 18.1084688,23.2915432 17.9939353,23.2203253 L14.9127211,21.3043982 Z" id="Star" fill="#FFFFFF"></path>
            </g>
        </g>
    </g>
</svg>