<?xml version="1.0" encoding="UTF-8"?>
<svg width="32px" height="31px" viewBox="0 0 32 31" version="1.1" xmlns="http://www.w3.org/2000/svg" xmlns:xlink="http://www.w3.org/1999/xlink">
    <!-- Generator: Sketch 51.2 (57519) - http://www.bohemiancoding.com/sketch -->
    <title>Group 9</title>
    <desc>Created with Sketch.</desc>
    <defs>
        <polygon id="path-1" points="3.12872172e-05 0.1337625 29.8755224 0.1337625 29.8755224 28.9999341 3.12872172e-05 28.9999341"></polygon>
    </defs>
    <g id="Page-1" stroke="none" stroke-width="1" fill="none" fill-rule="evenodd">
        <g id="Desktop-HD" transform="translate(-208.000000, -78.000000)">
            <g id="Group-9" transform="translate(209.000000, 79.000000)">
                <g id="Group-7-Copy-3">
                    <g id="Group-3">
                        <mask id="mask-2" fill="white">
                            <use xlink:href="#path-1"></use>
                        </mask>
                        <g id="Clip-2"></g>
                        <path d="M14.4571791,0.1337625 C14.1862836,0.14916875 14.0349403,0.122434375 13.9122537,0.1700125 C10.6140448,1.45190312 7.07135821,4.15524687 7.53837313,9.11923125 C7.60016418,9.7762625 7.66867164,10.379825 6.74538806,10.6870437 C4.02523881,11.5914812 3.3168806,12.7555594 3.2649403,15.6986062 C3.25553731,16.2328406 2.95508955,16.8966687 2.57001493,17.2677781 C0.186134328,19.5646687 -0.564313433,22.0106375 0.423447761,24.6179187 C1.46986567,27.3806219 3.79329851,28.9597625 6.99120896,28.9765281 C12.3491194,29.0041687 17.7074776,29.0132312 23.0653881,28.9706375 C26.1513582,28.9457156 28.454194,27.3126531 29.4701642,24.5893719 C30.4279254,22.0210594 29.6689701,19.5356687 27.4001642,17.3380125 C26.961806,16.9125281 26.6403134,16.1408562 26.6309104,15.5237 C26.5906119,12.8670281 25.711209,11.5606687 23.2646418,10.6562312 C22.8867313,10.5162156 22.4183731,10.0259344 22.3758358,9.6530125 C22.004194,6.41679375 21.0227015,5.19380937 17.7889701,5.00848125 C14.5727015,4.8245125 13.3127015,3.96085625 14.4571791,0.1337625" id="Fill-1" fill="#BD9564" mask="url(#mask-2)"></path>
                    </g>
                    <g id="Group-6" fill="#666666" stroke="#666666" stroke-linecap="round" stroke-width="2">
                        <path d="M14.4571791,0.132179104 C13.3127015,3.91397015 14.5727015,4.76740299 17.7889701,4.94919403 C21.0227015,5.13232836 22.004194,6.34083582 22.3758358,9.53874627 C22.4183731,9.90725373 22.8867313,10.3917313 23.2646418,10.5300896 C25.711209,11.4238209 26.5906119,12.7147164 26.6309104,15.3399403 C26.6403134,15.949791 26.961806,16.7123284 27.4001642,17.1327761 C29.6689701,19.3044179 30.4279254,21.7603881 29.4701642,24.2982985 C28.454194,26.9893433 26.1513582,28.6030746 23.0653881,28.6277015 C17.7074776,28.669791 12.3491194,28.6608358 6.99120896,28.6335224 C3.79329851,28.6169552 1.46986567,27.0565075 0.423447761,24.3265075 C-0.564313433,21.7500896 0.186134328,19.3330746 2.57001493,17.0633731 C2.95508955,16.6966567 3.25553731,16.0406866 3.2649403,15.5127761 C3.3168806,12.6045672 4.02523881,11.4542687 6.74538806,10.5605373 C7.66867164,10.2569552 7.60016418,9.66053731 7.53837313,9.01128358 C7.07135821,4.1060597 10.6140448,1.43471642 13.9122537,0.168 C14.0349403,0.120985075 14.1862836,0.147402985 14.4571791,0.132179104" id="Fill-4"></path>
                    </g>
                </g>
                <circle id="Oval-Copy-3" stroke="#40AE1A" fill="#4FD321" cx="15" cy="18" r="5.5"></circle>
                <g id="Group-Copy-2" transform="translate(11.000000, 15.000000)" stroke="#FFFFFF" stroke-linecap="round" stroke-width="1.5">
                    <path d="M4.50185461,0.995311539 L4.50185461,5.92675986" id="Line" transform="translate(4.881356, 3.684637) rotate(-315.000000) translate(-4.881356, -3.684637) "></path>
                    <path d="M3.37286396,4.04271584 L1.28460293,4.04271584" id="Line-Copy" transform="translate(2.074820, 4.042716) rotate(-315.000000) translate(-2.074820, -4.042716) "></path>
                </g>
            </g>
        </g>
    </g>
</svg>